<svg width="21" height="12" viewBox="0 0 21 12" fill="none" xmlns="http://www.w3.org/2000/svg">
<path d="M2.67644 3.67487C2.67644 2.83133 3.3626 2.14305 4.20532 2.14305L9.30078 2.14305V-0.000218827L4.20532 -0.000218827C2.1756 -0.000218827 0.524508 1.65405 0.524508 3.68768V4.54883H2.68044V3.67567H2.67644V3.67487Z" fill="#F50537"/>
<path d="M4.20346 9.13971C3.36153 9.13971 2.67458 8.45223 2.67458 7.60789V6.71313H0.518652V7.6207C0.518652 9.65432 2.16974 11.3086 4.19946 11.3086H9.29492V9.13571H4.20346V9.13971Z" fill="#00FD90"/>
<path d="M16.8347 2.14784C17.6766 2.14784 18.3636 2.83532 18.3636 3.67966V4.55762H20.5195V3.69647C20.5195 1.66284 18.8684 0.00857013 16.8387 0.00857013H11.4653V2.15184L16.8347 2.15184V2.14784V2.14784Z" fill="#EFFF00"/>
<path d="M18.3637 7.6078C18.3637 8.45134 17.6775 9.13962 16.8348 9.13962H11.4614V11.3125L16.8348 11.3125C18.8645 11.3125 20.5156 9.65823 20.5156 7.6246V6.71703H18.3597V7.607H18.3637V7.6078Z" fill="white"/>
</svg>
